#!OML:ASF H:\Pregnant\Project 1\Capture day 1\Session 1\femalepreg.ASF
:FULLY-SPECIFIED
:DEGREES
861
root 8.35383 15.8146 20.7771 75.6848 -430.928 -368.831
lowerback 12.286 3.5321 -5.15092
upperback 0.803821 4.19599 4.64044
thorax -6.78774 2.25335 7.12292
lowerneck -30.0844 3.92583 -0.00943958
upperneck -8.75657 4.47651 -6.88091
head 1.89219 1.53252 -1.78246
rclavicle 7.15625e-015 -7.95139e-016
rhumerus 32.153 19.6238 -44.8217
rradius 42.0573
rwrist 0.196457
rhand -25.9223 -17.7593
rfingers 7.12502
rthumb 0.620836 -47.7381
lclavicle 7.15625e-015 -7.95139e-016
lhumerus 36.3269 -26.7523 64.8723
lradius 32.5956
lwrist 30.8109
lhand -32.8146 -2.85427
lfingers 7.12502
lthumb -6.03522 27.0398
rfemur -85.1533 7.06079 -13.1117
rtibia 22.9902
rfoot 3.5522 -34.8113
rtoes -16.3665
lfemur -69.2342 4.77908 -3.98753
ltibia 2.42517e-014
lfoot 10.3329 10.4728
ltoes -27.5792
862
root 8.35118 15.8274 20.7799 74.5928 -430.88 -368.584
lowerback 11.7547 3.28054 -5.00166
upperback 0.744681 3.89853 4.48609
thorax -6.47974 2.09684 6.943
lowerneck -30.6143 4.05438 0.0858564
upperneck -8.53994 4.61629 -6.74101
head 2.02119 1.58733 -1.73603
rclavicle 6.36111e-014 2.42517e-014
rhumerus 30.5118 20.6412 -45.8891
rradius 43.3508
rwrist 0.55397
rhand -25.1831 -17.3544
rfingers 7.12502
rthumb 1.33476 -47.3299
lclavicle 6.36111e-014 2.42517e-014
lhumerus 34.1893 -27.504 65.2988
lradius 33.1513
lwrist 31.0979
lhand -32.3041 -2.31458
lfingers 7.12502
lthumb -5.54234 27.5929
rfemur -84.2939 7.52924 -12.9034
rtibia 23.1388
rfoot 3.41691 -34.7847
rtoes -16.6648
lfemur -68.2636 4.39375 -3.92598
ltibia 2.50469e-014
lfoot 10.2385 10.51
ltoes -27.8696
863
root 8.34772 15.8399 20.7828 73.5297 -430.825 -368.369
lowerback 11.2203 3.03789 -4.84351
upperback 0.689067 3.61218 4.32605
thorax -6.16992 1.94512 6.74639
lowerneck -31.1345 4.18997 0.225113
upperneck -8.31419 4.74924 -6.62468
head 2.15326 1.6371 -1.70407
rclavicle 5.1684e-014 9.26337e-014
rhumerus 28.8012 21.6625 -46.9442
rradius 44.7165
rwrist 0.950663
rhand -24.1858 -16.9659
rfingers 7.12502
rthumb 2.29789 -46.9332
lclavicle 5.1684e-014 9.26337e-014
lhumerus 32.0753 -28.2598 65.7089
lradius 33.7104
lwrist 31.4346
lhand -31.7394 -1.76873
lfingers 7.12502
lthumb -4.99708 28.1523
rfemur -83.4174 8.00655 -12.6782
rtibia 23.2634
rfoot 3.28898 -34.7655
rtoes -16.9426
lfemur -67.2861 4.01639 -3.86096
ltibia -4.51241e-014
lfoot 10.1335 10.5608
ltoes -28.1013
864
root 8.34323 15.8523 20.7859 72.5017 -430.765 -368.198
lowerback 10.6942 2.80615 -4.67963
upperback 0.635366 3.33899 4.16406
thorax -5.86735 1.79978 6.53866
lowerneck -31.6513 4.32473 0.384362
upperneck -8.06764 4.87344 -6.52256
head 2.29192 1.68178 -1.67995
rclavicle 1.27222e-014 -1.13307e-014
rhumerus 27.0398 22.686 -47.9945
rradius 46.1183
rwrist 1.40257
rhand -23.0559 -16.5438
rfingers 7.12502
rthumb 3.38911 -46.4966
lclavicle 1.27222e-014 -1.13307e-014
lhumerus 29.9849 -29.0159 66.11
lradius 34.2707
lwrist 31.8055
lhand -31.16 -1.23577
lfingers 7.12502
lthumb -4.43761 28.6977
rfemur -82.5205 8.4998 -12.4373
rtibia 23.3608
rfoot 3.1756 -34.7546
rtoes -17.2197
lfemur -66.2937 3.6509 -3.79392
ltibia 6.85807e-014
lfoot 10.0091 10.6287
ltoes -28.2457
865
root 8.33748 15.8646 20.7888 71.5279 -430.705 -368.09
lowerback 10.1786 2.58754 -4.5158
upperback 0.584441 3.08131 4.0046
thorax -5.57317 1.66226 6.32803
lowerneck -32.1683 4.45626 0.54253
upperneck -7.7997 4.99262 -6.42101
head 2.43688 1.72451 -1.65564
rclavicle -2.54444e-014 3.598e-014
rhumerus 25.2632 23.7088 -49.039
rradius 47.5181
rwrist 1.9128
rhand -21.8472 -16.1211
rfingers 7.12502
rthumb 4.55627 -46.0521
lclavicle -2.54444e-014 3.598e-014
lhumerus 27.9195 -29.769 66.5052
lradius 34.8367
lwrist 32.1926
lhand -30.6024 -0.727
lfingers 7.12502
lthumb -3.89916 29.2171
rfemur -81.6071 9.01443 -12.1815
rtibia 23.4321
rfoot 3.04722 -34.7555
rtoes -17.4367
lfemur -65.2833 3.30558 -3.7242
ltibia -5.08889e-014
lfoot 9.86225 10.7115
ltoes -28.3064
866
root 8.33015 15.877 20.7917 70.6121 -430.651 -368.055
lowerback 9.68504 2.38176 -4.35725
upperback 0.538104 2.83787 3.84837
thorax -5.29181 1.53218 6.11864
lowerneck -32.6988 4.58012 0.682081
upperneck -7.49924 5.10746 -6.30717
head 2.59225 1.76643 -1.62406
rclavicle 1.74931e-014 -6.26172e-014
rhumerus 23.5068 24.7576 -50.0539
rradius 48.9007
rwrist 2.44583
rhand -20.6681 -15.6561
rfingers 7.12502
rthumb 5.69485 -45.5596
lclavicle 1.74931e-014 -6.26172e-014
lhumerus 25.8766 -30.5139 66.891
lradius 35.4108
lwrist 32.5788
lhand -30.0697 -0.27602
lfingers 7.12502
lthumb -3.38478 29.6769
rfemur -80.6763 9.55945 -11.9149
rtibia 23.4807
rfoot 2.91505 -34.7674
rtoes -17.6237
lfemur -64.244 2.98277 -3.65698
ltibia -3.16068e-014
lfoot 9.69129 10.8079
ltoes -28.3114
867
root 8.32135 15.8893 20.7947 69.7244 -430.607 -368.064
lowerback 9.22151 2.18775 -4.205
upperback 0.491373 2.60721 3.69442
thorax -5.03256 1.40926 5.91047
lowerneck -33.3279 4.68776 0.777759
upperneck -7.07206 5.21867 -6.14999
head 2.76012 1.8073 -1.58389
rclavicle 4.29375e-014 4.17448e-014
rhumerus 21.782 25.83 -51.0467
rradius 50.2427
rwrist 2.99756
rhand -19.5613 -15.2182
rfingers 7.12502
rthumb 6.76335 -45.0902
lclavicle 4.29375e-014 4.17448e-014
lhumerus 23.8502 -31.2549 67.2843
lradius 35.9867
lwrist 32.9437
lhand -29.5911 0.101456
lfingers 7.12502
lthumb -2.92254 30.0612
rfemur -79.7253 10.1261 -11.6413
rtibia 23.5124
rfoot 2.78666 -34.791
rtoes -17.8088
lfemur -63.1768 2.67224 -3.59783
ltibia 5.96354e-015
lfoot 9.49361 10.9198
ltoes -28.2402
868
root 8.31123 15.9015 20.798 68.8563 -430.573 -368.103
lowerback 8.78776 2.00869 -4.06438
upperback 0.432671 2.39398 3.55525
thorax -4.80855 1.29669 5.71963
lowerneck -33.8465 4.77185 0.82897
upperneck -6.70395 5.3138 -5.99332
head 2.93272 1.84637 -1.5243
rclavicle -2.78299e-014 4.21423e-014
rhumerus 20.0721 26.9254 -52.0359
rradius 51.5277
rwrist 3.58305
rhand -18.5584 -14.8081
rfingers 7.12502
rthumb 7.73135 -44.6468
lclavicle -2.78299e-014 4.21423e-014
lhumerus 21.8095 -31.9921 67.7373
lradius 36.5668
lwrist 33.2885
lhand -29.1368 0.414156
lfingers 7.12502
lthumb -2.48382 30.3794
rfemur -78.7584 10.7076 -11.3622
rtibia 23.5354
rfoot 2.64677 -34.8266
rtoes -17.9727
lfemur -62.0877 2.37038 -3.54857
ltibia -1.18177e-013
lfoot 9.27039 11.0477
ltoes -28.0852
869
root 8.29994 15.9135 20.8017 67.9924 -430.551 -368.152
lowerback 8.37518 1.8414 -3.93702
upperback 0.363051 2.1938 3.4196
thorax -4.61221 1.19194 5.53621
lowerneck -34.3186 4.83738 0.852228
upperneck -6.32539 5.39561 -5.81903
head 3.10178 1.88307 -1.45573
rclavicle 9.54166e-015 9.93923e-015
rhumerus 18.3689 28.0633 -52.9839
rradius 52.8056
rwrist 4.13393
rhand -17.675 -14.4843
rfingers 7.12502
rthumb 8.58394 -44.2898
lclavicle 9.54166e-015 9.93923e-015
lhumerus 19.7652 -32.7432 68.2123
lradius 37.1658
lwrist 33.6377
lhand -28.7104 0.684331
lfingers 7.12502
lthumb -2.07206 30.654
rfemur -77.781 11.2944 -11.0834
rtibia 23.5569
rfoot 2.48601 -34.8748
rtoes -18.1001
lfemur -60.9837 2.07165 -3.51561
ltibia 6.48535e-014
lfoot 9.02847 11.1859
ltoes -27.8679
